<svg fill="#000000" xmlns="http://www.w3.org/2000/svg" viewBox="0 0 32 32" width="64px" height="64px"><path d="M21.3,6C21.143,6,21,6.125,21,6.3V15h2V7.231c0-0.178-0.095-0.342-0.248-0.432L21.45,6.041C21.401,6.013,21.35,6,21.3,6 L21.3,6z"/><path d="M15.407,25.677c-0.102,0-0.204-0.029-0.297-0.078l-0.935-0.555c-0.141-0.078-0.073-0.107-0.024-0.122 c0.185-0.063,0.224-0.078,0.423-0.195c0.019-0.01,0.049-0.005,0.068,0.005l0.72,0.428c0.024,0.015,0.063,0.015,0.088,0l2.813-1.626 c0.024-0.015,0.044-0.044,0.044-0.078v-3.247c0-0.034-0.015-0.063-0.044-0.078l-2.813-1.621c-0.024-0.015-0.058-0.015-0.088,0 l-2.813,1.621c-0.029,0.015-0.044,0.049-0.044,0.078v3.247c0,0.029,0.019,0.058,0.044,0.073l0.769,0.443 c0.419,0.209,0.677-0.039,0.677-0.282v-3.208c0-0.044,0.034-0.083,0.083-0.083h0.355c0.044,0,0.083,0.034,0.083,0.083v3.208 c0,0.56-0.302,0.876-0.832,0.876c-0.161,0-0.292,0-0.647-0.175l-0.74-0.423C12.117,23.862,12,23.667,12,23.458v-3.247 c0-0.209,0.112-0.409,0.297-0.511l2.813-1.626c0.18-0.102,0.414-0.102,0.589,0l2.813,1.626c0.18,0.107,0.297,0.302,0.297,0.511 v3.247c0,0.209-0.112,0.409-0.297,0.511l-2.813,1.626C15.617,25.648,15.514,25.677,15.407,25.677L15.407,25.677z M17.68,22.474 c0-0.608-0.409-0.769-1.275-0.886c-0.876-0.117-0.964-0.175-0.964-0.38c0-0.17,0.073-0.394,0.72-0.394 c0.579,0,0.793,0.127,0.881,0.516c0.01,0.039,0.039,0.063,0.078,0.063h0.365c0.024,0,0.044-0.01,0.058-0.024 c0.015-0.019,0.024-0.039,0.019-0.063c-0.058-0.672-0.501-0.983-1.402-0.983c-0.803,0-1.28,0.341-1.28,0.905 c0,0.618,0.477,0.784,1.246,0.862c0.92,0.092,0.993,0.224,0.993,0.404c0,0.316-0.253,0.448-0.847,0.448 c-0.745,0-0.91-0.185-0.964-0.555c-0.005-0.039-0.039-0.068-0.083-0.068h-0.365c-0.044,0-0.083,0.034-0.083,0.083 c0,0.472,0.258,1.037,1.489,1.037C17.169,23.438,17.68,23.088,17.68,22.474L17.68,22.474z M20.333,20.036 c0,0.297-0.243,0.54-0.54,0.54c-0.297,0-0.54-0.243-0.54-0.54c0-0.307,0.253-0.54,0.54-0.54 C20.085,19.491,20.333,19.729,20.333,20.036z M20.246,20.036c0-0.253-0.204-0.453-0.458-0.453c-0.248,0-0.453,0.2-0.453,0.453 s0.204,0.458,0.453,0.458C20.041,20.488,20.246,20.284,20.246,20.036z M20.026,20.337H19.9c-0.005-0.029-0.024-0.185-0.024-0.19 c-0.01-0.034-0.019-0.054-0.063-0.054h-0.107v0.243h-0.117v-0.608h0.209c0.073,0,0.214,0,0.214,0.161 c0,0.112-0.073,0.136-0.117,0.151c0.083,0.005,0.088,0.058,0.102,0.136C20.002,20.226,20.012,20.308,20.026,20.337L20.026,20.337z M19.89,19.909c0-0.083-0.058-0.083-0.088-0.083h-0.097v0.17h0.092C19.876,19.997,19.89,19.943,19.89,19.909z M14.94,16.711 l-0.019-0.034v0.044L14.94,16.711L14.94,16.711z"/><path d="M6.749,12.817l-2.995-1.745c-0.078-0.046-0.166-0.069-0.254-0.069s-0.176,0.023-0.254,0.069l-2.995,1.745 C0.095,12.908,0,13.074,0,13.254v4.463c0,0.218,0.236,0.353,0.424,0.244l1.328-0.773C1.905,17.098,2,16.933,2,16.755v-2.642 l1.5-0.874L5,14.113v2.642c0,0.178,0.095,0.342,0.248,0.432l1.328,0.773C6.764,18.07,7,17.935,7,17.717v-4.463 C7,13.074,6.905,12.908,6.749,12.817z"/><path d="M8,13.251v3.497c0,0.18,0.095,0.346,0.251,0.436l2.995,1.745c0.157,0.091,0.351,0.091,0.508,0l2.995-1.745 C14.905,17.094,15,16.928,15,16.749v-3.497c0-0.18-0.095-0.346-0.251-0.436l-2.995-1.745c-0.157-0.091-0.351-0.091-0.508,0 l-2.995,1.745C8.095,12.906,8,13.072,8,13.251z"/><path d="M19.5,13.237l1.5,0.874v1.778l-1.5,0.874L18,15.889v-1.778L19.5,13.237 M19.5,11.002c-0.088,0-0.176,0.023-0.254,0.069 l-2.995,1.745C16.095,12.906,16,13.072,16,13.251v3.497c0,0.18,0.095,0.346,0.251,0.436l2.995,1.745 c0.078,0.046,0.166,0.069,0.254,0.069s0.176-0.023,0.254-0.069l2.995-1.745C22.905,17.094,23,16.928,23,16.749v-3.497 c0-0.18-0.096-0.346-0.251-0.436l-2.995-1.745C19.676,11.025,19.588,11.002,19.5,11.002L19.5,11.002z"/><path d="M29.094,17.726L26,15.905v-1.795l1.5-0.874l1.5,0.874c0,0,0,0.938,0,1.25c0,0.167,0.141,0.192,0.235,0.136 c0.378-0.222,1.517-0.883,1.517-0.883C30.905,14.524,31,14.36,31,14.182v-0.93c0-0.18-0.095-0.346-0.251-0.436l-2.995-1.745 c-0.079-0.046-0.166-0.069-0.254-0.069s-0.176,0.023-0.254,0.069l-2.995,1.745C24.095,12.906,24,13.072,24,13.251v3.497 c0,0.18,0.095,0.346,0.251,0.436l2.905,1.756c0.156,0.095,0.352,0.096,0.51,0.004l1.428-0.831 C29.242,18.028,29.243,17.813,29.094,17.726z"/><polygon points="26.643,14.503 26.643,15.501 27.5,16 28.357,15.501 28.357,14.503 27.5,14.004"/></svg>